<svg width="76" height="76" viewBox="0 0 76 76" fill="none" xmlns="http://www.w3.org/2000/svg">
<rect x="0.882324" y="1.1181" width="74" height="74" rx="23" transform="rotate(-0.182523 0.882324 1.1181)" fill="#F6F0D8"/>
<path d="M51.8795 51.8012C51.6321 51.6363 51.4268 51.5109 51.2338 51.3731C46.615 48.0885 41.9961 44.8038 37.3773 41.5167C33.9558 39.0834 30.5417 36.6353 27.1079 34.2192C25.0719 32.7848 24.0663 30.8591 24.091 28.3706C24.1067 26.7962 24.0631 25.2219 24.0517 23.6475C24.0515 23.5194 24.086 23.3912 24.1155 23.1891C24.2985 23.2949 24.4271 23.3564 24.5409 23.4376C28.2222 26.0677 31.9059 28.7028 35.5847 31.3355C40.1392 34.5931 44.6962 37.8482 49.2434 41.1132C50.8836 42.2917 51.8494 43.907 51.9527 45.9125C52.051 47.7948 51.9639 49.6846 51.9534 51.5719C51.9559 51.6212 51.9263 51.6705 51.8795 51.8012Z" fill="#202020"/>
<path d="M24.0348 34.0498C24.4876 34.3771 24.8339 34.628 25.1803 34.8815C28.535 37.3395 31.8848 39.8049 35.247 42.2531C37.048 43.5621 37.9497 45.3376 38.0137 47.5279C38.0623 49.2377 38.0294 50.9501 38.0287 52.66C38.0287 52.7512 38.0041 52.8424 37.982 53.0026C37.8336 52.9288 37.7124 52.887 37.6135 52.8157C34.8698 50.835 32.1262 48.8519 29.3851 46.8688C28.4821 46.2168 27.5716 45.5721 26.6785 44.9053C24.9195 43.5889 24.0203 41.8257 24.0008 39.6329C23.9844 37.9772 23.9951 36.3191 23.9959 34.6634C23.9957 34.5057 24.0129 34.348 24.0348 34.0498Z" fill="#202020"/>
<path d="M51.8318 40.884C51.713 40.8028 51.5918 40.7265 51.478 40.6429C47.8957 38.052 44.3109 35.4685 40.741 32.8678C38.9275 31.5465 38.0086 29.7439 37.989 27.5019C37.975 25.8585 37.9833 24.2151 37.9816 22.5717C37.9815 22.4116 37.9813 22.2514 37.9811 22.0001C38.174 22.1034 38.3076 22.1526 38.4189 22.2337C42.0581 24.9009 45.7097 27.5582 49.3317 30.2501C51.0635 31.5369 51.9577 33.2854 51.9525 35.4634C51.9467 37.092 51.9532 38.7231 51.9549 40.3517C51.955 40.5093 51.9552 40.667 51.9553 40.8272C51.9133 40.8445 51.8713 40.8642 51.8318 40.884Z" fill="#202020"/>
</svg>
